<?xml version="1.0" encoding="UTF-8"?>
<svg width="121px" height="26px" viewBox="0 0 121 26" version="1.1" xmlns="http://www.w3.org/2000/svg" xmlns:xlink="http://www.w3.org/1999/xlink">
    <!-- Generator: Sketch 42 (36781) - http://www.bohemiancoding.com/sketch -->
    <title>Page 1</title>
    <desc>Created with Sketch.</desc>
    <defs>
        <polygon id="path-1" points="0.084567033 0.228103093 7.4660989 0.228103093 7.4660989 7.4093567 0.084567033 7.4093567 0.084567033 0.228103093"></polygon>
        <polygon id="path-3" points="44.5301275 16.8865443 44.5301275 0.0972453608 0.00978637363 0.0972453608 0.00978637363 16.8865443 44.5301275 16.8865443"></polygon>
        <polygon id="path-5" points="0.0739224738 16.8865979 32.3359326 16.8865979 32.3359326 0.102150515 0.0739224738 0.102150515 0.0739224738 16.8865979"></polygon>
        <polygon id="path-7" points="-3.44924028e-17 18.6807856 -3.44924028e-17 0.242982872 17.6522933 0.242982872 17.6522933 18.6807856 -6.86614394e-16 18.6807856"></polygon>
    </defs>
    <g id="Website-2017" stroke="none" stroke-width="1" fill="none" fill-rule="evenodd">
        <g id="Homepage-" transform="translate(-25.000000, -11.000000)">
            <g id="New-Nav" transform="translate(0.000000, 9.000000)">
                <g id="Page-1" transform="translate(25.000000, 2.000000)">
                    <g id="Group-12" transform="translate(25.795604, 0.040019)">
                        <g id="Group-3" transform="translate(42.815385, 0.000000)">
                            <mask id="mask-2" fill="white">
                                <use xlink:href="#path-1"></use>
                            </mask>
                            <g id="Clip-2"></g>
                            <path d="M7.18500659,2.40904742 C7.00018242,1.97508866 6.74329011,1.59607835 6.41831868,1.27416082 C6.09095385,0.951975258 5.70322198,0.697604124 5.2529956,0.509707216 C4.80170549,0.322078351 4.31424835,0.227995876 3.78450769,0.227995876 C3.2560967,0.227995876 2.76518242,0.322078351 2.31601978,0.509707216 C1.86579341,0.697604124 1.47407253,0.95251134 1.14245275,1.27898557 C0.809237363,1.60438763 0.550217582,1.98715052 0.362468132,2.42378969 C0.178441758,2.86150103 0.084567033,3.32682062 0.084567033,3.82028454 L0.084567033,3.83877938 C0.084567033,4.3322433 0.178441758,4.79649072 0.362468132,5.23044948 C0.550217582,5.66440825 0.805514286,6.04234639 1.13287912,6.36453196 C1.45785055,6.68725361 1.84664615,6.94189278 2.29554286,7.12925361 C2.74816264,7.31661443 3.23694945,7.4093567 3.76403077,7.4093567 C4.29377143,7.4093567 4.78362198,7.31661443 5.23331648,7.12925361 C5.68407473,6.94189278 6.07632747,6.68671753 6.40741538,6.3602433 C6.7408967,6.03484124 7.00018242,5.65261443 7.18500659,5.21597526 C7.37142637,4.77906804 7.4660989,4.31294433 7.4660989,3.82028454 L7.4660989,3.80071753 C7.4660989,3.30725361 7.37142637,2.84300619 7.18500659,2.40904742" id="Fill-1" fill="#0089CC" mask="url(#mask-2)"></path>
                        </g>
                        <path d="M48.5264782,9.15971959 L41.0391046,9.15971959 C40.9197002,9.15971959 40.8138585,9.23450309 40.775298,9.34681237 L37.1883793,19.4184619 L33.6038541,9.34681237 C33.5629002,9.23450309 33.4565266,9.15971959 33.3384519,9.15971959 L28.9606453,9.15971959 C28.8673024,9.15971959 28.7795442,9.20609072 28.7266233,9.28382268 C28.6760958,9.36235876 28.6651925,9.4607299 28.6989662,9.5478433 L35.0026673,25.3898845 C35.0460145,25.497101 35.1476013,25.568132 35.2624848,25.568132 L39.0227925,25.568132 C39.1360804,25.568132 39.2395288,25.497101 39.2839398,25.3898845 L44.2406848,12.9299876 L44.3239222,12.9466062 L44.3239222,25.2853485 C44.3239222,25.4418845 44.4489112,25.568132 44.6055464,25.568132 L48.5264782,25.568132 C48.6823156,25.568132 48.8081024,25.4418845 48.8081024,25.2853485 L48.8081024,9.44303918 C48.8081024,9.28596701 48.6823156,9.15971959 48.5264782,9.15971959" id="Fill-4" fill="#0089CC"></path>
                        <g id="Group-8" transform="translate(50.527473, 8.845361)">
                            <mask id="mask-4" fill="white">
                                <use xlink:href="#path-3"></use>
                            </mask>
                            <g id="Clip-7"></g>
                            <path d="M39.9996215,8.53357526 C39.9996215,9.11468866 39.8996303,9.6732866 39.7023073,10.1927505 C39.5025908,10.7130186 39.2257534,11.1748536 38.876582,11.5624412 C38.5263468,11.9524412 38.0952677,12.2665856 37.593982,12.4960289 C37.0889732,12.7252041 36.5270545,12.8409979 35.9215226,12.8409979 C35.3125336,12.8409979 34.7490193,12.7222557 34.2485314,12.483699 C33.7440545,12.2454103 33.3084545,11.9240289 32.9544963,11.5289361 C32.5968149,11.1330392 32.3151908,10.6682557 32.1154743,10.1453072 C31.9181512,9.62664742 31.81816,9.06992577 31.81816,8.48881237 L31.81816,8.44244124 C31.81816,7.85891546 31.9144281,7.30112165 32.104571,6.7827299 C32.2947138,6.26246186 32.5715512,5.80116289 32.9292325,5.41277113 C33.2866479,5.02437938 33.7187908,4.70996701 34.2128963,4.47945155 C34.7070018,4.25000825 35.2654633,4.13394639 35.8744523,4.13394639 C36.4823776,4.13394639 37.0458919,4.25402887 37.5477095,4.48936907 C38.0489952,4.72765773 38.4901798,5.04930722 38.8537116,5.44788454 C39.2191051,5.84404948 39.5036545,6.31044124 39.7023073,6.82910103 C39.8996303,7.34776082 39.9996215,7.90689485 39.9996215,8.48881237 L39.9996215,8.53357526 Z M10.8620237,8.53786392 C10.8620237,9.85850309 10.4463688,10.8896577 9.6259622,11.6042557 C8.80635341,12.3188536 7.70724791,12.6815134 6.36215341,12.6815134 L4.52109187,12.6815134 L4.52109187,4.34677113 L6.36215341,4.34677113 C7.70724791,4.34677113 8.80502374,4.71345155 9.6259622,5.43582268 C10.4463688,6.15980206 10.8620237,7.18774021 10.8620237,8.49122474 L10.8620237,8.53786392 Z M19.5538127,5.04153402 C20.0226545,4.52099794 20.6358985,4.25670928 21.3767908,4.25670928 C22.1370963,4.25670928 22.771349,4.52099794 23.2601358,5.04153402 C23.7462633,5.56367835 24.041716,6.27666804 24.1398457,7.15932784 L18.6145336,7.15932784 C18.7690413,6.27774021 19.0844391,5.56501856 19.5538127,5.04153402 L19.5538127,5.04153402 Z M43.8790677,5.19163711 C43.4469248,4.18353402 42.8437864,3.29122474 42.0832149,2.54070928 C41.324771,1.78992577 40.4094259,1.1895134 39.3629754,0.752606186 C38.315727,0.317039175 37.1613073,0.0972453608 35.9324259,0.0972453608 C34.7022149,0.0972453608 33.5491248,0.317039175 32.5013446,0.752606186 C31.4546281,1.1895134 30.531571,1.79501856 29.7587666,2.55116289 C29.2362062,3.06204948 28.7854479,3.64611134 28.4104809,4.2958433 C28.0530655,3.6244 27.9687644,3.39066804 27.4235996,2.72619381 C26.7704655,1.93091546 25.9298479,1.28681237 24.9222237,0.812647423 C23.9148655,0.340358763 22.7112479,0.102070103 21.3472721,0.102070103 C20.1750347,0.102070103 19.0868325,0.321327835 18.1119182,0.753946392 C17.137004,1.18576082 16.2809622,1.78912165 15.5661314,2.54848247 C15.0978215,3.04569897 14.7042391,3.60778144 14.3731512,4.21730722 C14.0085556,3.59947216 13.5668391,3.05025567 13.0612985,2.58600825 C12.2799842,1.87087423 11.3111864,1.30745155 10.1785732,0.911018557 C9.04463033,0.514853608 7.73623473,0.314358763 6.28689407,0.314358763 L0.291410549,0.314358763 C0.135041319,0.314358763 0.00978637363,0.440606186 0.00978637363,0.597678351 L0.00978637363,16.4316784 C0.00978637363,16.5876784 0.135041319,16.7131216 0.291410549,16.7131216 L6.19301934,16.7131216 C7.64342374,16.7131216 8.96219077,16.5045856 10.1091644,16.0931423 C11.2593292,15.6811629 12.24036,15.1013897 13.0251314,14.3709773 C13.5272149,13.9056577 14.3383138,12.7737196 14.354004,12.7520082 C14.9233688,13.6807711 15.374127,14.2291835 15.374127,14.2291835 L15.4493864,14.3098639 C15.5347512,14.4042144 15.620382,14.498833 15.712927,14.5880907 C16.4628611,15.3069773 17.3691644,15.8754928 18.4068391,16.2788948 C19.4394611,16.6833691 20.5968062,16.8865443 21.8480259,16.8865443 C24.0473007,16.8865443 26.3643842,15.590833 26.4574611,15.5380289 L27.1744193,15.1432041 C27.300738,15.0740495 27.3549886,14.9218021 27.3012699,14.7888536 L26.0657402,11.703699 C26.0356897,11.6291835 25.9755886,11.5702144 25.9008611,11.5428742 C25.8261336,11.5158021 25.7426303,11.521699 25.6721578,11.5592247 L25.0498721,11.8924 C24.9825908,11.925101 23.3593292,12.6732041 22.1429468,12.6732041 C21.2643007,12.6732041 20.51676,12.4534103 19.9221314,12.0215959 C19.3275029,11.5884412 18.9166347,10.9212866 18.7028237,10.0380907 L27.4307798,10.0380907 C27.5408765,10.6494928 27.712404,11.2536577 27.9387138,11.7849155 C28.3732501,12.7943588 28.9750589,13.6847918 29.7345666,14.4347711 C30.4930105,15.1831423 31.4083556,15.7848948 32.4561358,16.2218021 C33.5033842,16.656833 34.6583358,16.877967 35.8853556,16.877967 C37.1131732,16.877967 38.267593,16.656833 39.3164369,16.2218021 C40.3642171,15.7848948 41.2870084,15.1807299 42.0614084,14.4237814 C42.8342127,13.666833 43.4445314,12.7664825 43.8790677,11.7498021 C44.3106787,10.7320495 44.5303402,9.63522474 44.5303402,8.48881237 L44.5303402,8.44244124 C44.5303402,7.29361649 44.3106787,6.20027629 43.8790677,5.19163711 L43.8790677,5.19163711 Z" id="Fill-6" fill="#0089CC" mask="url(#mask-4)"></path>
                        </g>
                        <g id="Group-11" transform="translate(0.000000, 8.845361)">
                            <mask id="mask-6" fill="white">
                                <use xlink:href="#path-5"></use>
                            </mask>
                            <g id="Clip-10"></g>
                            <path d="M24.5691697,5.04161443 C25.0366818,4.52081031 25.6501916,4.25678969 26.390818,4.25678969 C27.1511235,4.25678969 27.7853763,4.52081031 28.2728334,5.04161443 C28.6451411,5.44019175 28.9054905,5.95027423 29.0514884,6.56221237 C29.1238224,6.86590309 28.8977785,7.15940825 28.5879653,7.15940825 L24.2279763,7.15940825 C23.9131103,7.15940825 23.6796202,6.85544948 23.7679103,6.55095464 C23.9436927,5.9449134 24.2120202,5.43885155 24.5691697,5.04161443 L24.5691697,5.04161443 Z M31.0797675,11.7037794 C31.0497169,11.6289959 30.9896158,11.5702948 30.9148884,11.5429546 C30.8404268,11.5156144 30.7566576,11.5217794 30.6861851,11.5593052 L30.065229,11.8924804 C29.996618,11.9251814 28.3733565,12.6730165 27.1569741,12.6730165 C26.2783279,12.6730165 25.5307873,12.4534907 24.9374884,12.0216763 C24.5010905,11.7043155 24.164418,11.2615113 23.9309279,10.6999649 C23.8003543,10.3855526 24.0351741,10.0379031 24.3734422,10.0379031 L31.5116444,10.0379031 C31.8493807,10.0379031 32.0799455,9.69373814 31.9538927,9.37798557 L28.4244158,0.535037113 C28.3635169,0.382789691 28.230284,0.269676289 28.0696598,0.242068041 C27.5332708,0.149325773 26.9633741,0.102150515 26.3615653,0.102150515 C25.1901257,0.102150515 24.1021895,0.321408247 23.1259455,0.753758763 C22.1520949,1.18584124 21.2952554,1.78893402 20.5801587,2.54856289 C19.8663916,3.30685155 19.3066004,4.20639794 18.9178048,5.21771753 C18.8154202,5.4860268 18.7191521,5.79078969 18.6290004,6.13683093 L17.9662927,8.29027423 C17.8290708,8.73629485 17.2051895,8.74299588 17.0583938,8.30045979 L14.4727169,0.502604124 C14.4341565,0.387346392 14.3259213,0.308274227 14.2041235,0.308274227 L10.7714466,0.308274227 C10.6491169,0.308274227 10.5419455,0.387346392 10.5041829,0.502604124 L7.95866198,8.26722268 C7.81239824,8.71351134 7.18319824,8.70493402 7.04916747,8.25462474 L4.74218945,0.506624742 C4.70602242,0.387346392 4.59645758,0.305057732 4.47253231,0.305057732 L0.355872967,0.305057732 C0.265721319,0.305057732 0.180090549,0.348748454 0.12716967,0.421923711 C0.0742487912,0.496171134 0.0598883516,0.591325773 0.0880773626,0.67736701 L5.27778066,16.5287897 C5.3163411,16.6440474 5.42351253,16.7228515 5.5450444,16.7228515 L9.02851473,16.7228515 C9.14765319,16.7228515 9.25482462,16.6456557 9.29444879,16.5330784 L11.9989982,8.65052165 C12.1468576,8.21951134 12.7515916,8.21897526 12.9002488,8.64998557 L15.6172971,16.5330784 C15.6571873,16.6456557 15.7635609,16.7228515 15.8834971,16.7228515 L19.3669675,16.7228515 C19.4890312,16.7228515 19.5967345,16.6440474 19.6352949,16.5287897 L20.3881543,14.2289959 L20.4634136,14.3096763 C20.5487785,14.4042948 20.6344092,14.4989134 20.7269543,14.5881711 C21.4779521,15.3070577 22.3845213,15.8753052 23.4208664,16.2787072 C24.4534884,16.6834495 25.6108334,16.8866247 26.8633829,16.8866247 C29.0613279,16.8866247 31.3784114,15.5909134 31.4722862,15.5381093 L32.1884466,15.1432845 C32.3147653,15.0741299 32.3690158,14.9218825 32.3152971,14.788934 L31.0797675,11.7037794 Z" id="Fill-9" fill="#555555" mask="url(#mask-6)"></path>
                        </g>
                    </g>
                    <g id="Group-18" transform="translate(0.000000, 7.009091)">
                        <g id="Group-15">
                            <mask id="mask-8" fill="white">
                                <use xlink:href="#path-7"></use>
                            </mask>
                            <g id="Clip-14"></g>
                            <path d="M16.9566209,5.85849691 C15.7875747,5.44035258 2.09356593,0.554496907 1.40878571,0.313527835 C0.554605495,0.0125175258 -0.121930769,0.725775258 0.0184824176,1.48781649 C0.126983516,2.07509485 2.85865824,17.0277753 3.04162088,17.8742495 C3.16155714,18.4293629 3.37324066,18.6467443 3.68996813,18.6807856 C3.7147,18.6805175 3.73863407,18.6797134 3.76416374,18.6797134 C5.4219967,18.6797134 8.44061429,7.36756907 10.1851418,7.36756907 C11.3914187,7.36756907 12.4256363,10.539301 12.8737352,11.5945794 C15.1182187,9.59123918 17.0140626,7.87068247 17.2839857,7.63346598 C17.8908473,7.1006 17.7243725,6.13323918 16.9566209,5.85849691" id="Fill-13" fill="#0089CC" mask="url(#mask-8)"></path>
                        </g>
                        <path d="M10.2254042,8.42016701 C9.67465473,8.42016701 7.27061077,15.3769093 5.69335582,17.9927237 C7.01371846,16.7830536 9.71693824,14.4033835 12.1084833,12.2762082 C11.8593031,11.2179814 10.7601976,8.42016701 10.2254042,8.42016701" id="Fill-16" fill="#444444"></path>
                    </g>
                </g>
            </g>
        </g>
    </g>
</svg>